<?xml version="1.0" standalone="no"?><!DOCTYPE svg PUBLIC "-//W3C//DTD SVG 1.1//EN" "http://www.w3.org/Graphics/SVG/1.1/DTD/svg11.dtd"><svg t="1774957251925" class="icon" viewBox="0 0 1024 1024" version="1.1" xmlns="http://www.w3.org/2000/svg" p-id="55338" xmlns:xlink="http://www.w3.org/1999/xlink" width="200" height="200"><path d="M753.659733 857.1264c-23.517867 102.4896-165.892267 157.277867-318.007466 122.376533-152.110933-34.901333-256.362667-146.274133-232.8448-248.763733 23.509333-102.4896 165.888-157.277867 318.0032-122.376533 152.110933 34.901333 256.362667 146.2784 232.849066 248.763733z" fill="#3E66A3" p-id="55339"></path><path d="M921.706667 823.7184c-23.765333 103.5648-228.433067 144.981333-457.143467 92.5056-228.7104-52.475733-394.850133-178.9696-371.089067-282.538667 23.765333-103.5648 228.433067-144.981333 457.143467-92.509866 228.706133 52.475733 394.850133 178.973867 371.089067 282.542933z" fill="#4B74B2" p-id="55340"></path><path d="M1008.9344 784.1024c-23.5136 102.485333-265.5872 134.4-540.6848 71.2832C193.147733 792.264533-10.798933 658.013867 12.714667 555.528533c23.5136-102.4896 265.5872-134.404267 540.689066-71.287466 275.0976 63.121067 479.048533 197.371733 455.530667 299.861333z" fill="#5985C9" p-id="55341"></path><path d="M1012.0704 770.427733c-23.761067 103.5648-266.0352 136.354133-541.137067 73.237334C195.835733 780.544-7.914667 645.418667 15.850667 541.853867c23.761067-103.569067 266.0352-136.3584 541.137066-73.237334 275.0976 63.1168 478.843733 198.242133 455.082667 301.8112z" fill="#6B9EEB" p-id="55342"></path><path d="M917.0176 682.820267c-17.821867 77.674667-204.5568 101.115733-417.083733 52.352-212.522667-48.763733-370.368-151.261867-352.546134-228.936534 17.821867-77.674667 204.5568-101.111467 417.083734-52.347733 212.5312 48.759467 370.368 151.2576 352.546133 228.932267z" fill="#3B5A8A" p-id="55343"></path><path d="M937.9712 378.167467c-10.624-64.008533-73.975467-58.295467-104.32-47.441067l0.8832 188.578133c30.929067-2.261333 116.714667-61.128533 103.4368-141.137066zM193.8688 285.312c28.0448-58.5088 87.291733-35.370667 113.408-16.4864l-53.4016 180.859733c-29.073067-10.7904-95.057067-91.234133-60.0064-164.373333z" fill="#FFD7C9" p-id="55344"></path><path d="M213.858133 437.248c-25.0368 176.136533 119.150933 307.835733 295.291734 332.872533 176.136533 25.041067 351.317333-61.252267 376.3584-237.3888 25.0368-176.1408-99.818667-374.0416-285.6832-400.4608-209.096533-29.725867-360.925867 128.840533-385.962667 304.977067z" fill="#FFE2D8" p-id="55345"></path><path d="M402.368 354.1504c-1.992533 13.998933-28.189867 21.853867-58.517333 17.540267-30.327467-4.309333-53.303467-19.157333-51.310934-33.152 1.988267-13.994667 28.189867-21.8496 58.517334-17.536 30.327467 4.309333 53.2992 19.153067 51.310933 33.152zM790.993067 409.399467c-1.988267 13.994667-28.189867 21.8496-58.517334 17.540266-30.327467-4.309333-53.303467-19.157333-51.310933-33.152 1.988267-13.994667 28.189867-21.8496 58.517333-17.536 30.327467 4.309333 53.2992 19.153067 51.310934 33.152z" fill="#FF8F8E" opacity=".5" p-id="55346"></path><path d="M483.490133 298.884267c-3.153067 22.165333-23.675733 37.576533-45.8368 34.427733a40.533333 40.533333 0 0 1-34.423466-45.8368 40.533333 40.533333 0 0 1 45.832533-34.423467 40.533333 40.533333 0 0 1 34.427733 45.832534zM690.4704 328.311467a40.533333 40.533333 0 1 1-80.256-11.413334 40.533333 40.533333 0 0 1 80.256 11.413334z" fill="#FFFFFF" p-id="55347"></path><path d="M469.312 307.643733a25.6 25.6 0 1 1-50.688-7.202133 25.6 25.6 0 0 1 50.688 7.202133zM676.296533 337.070933a25.6 25.6 0 1 1-50.692266-7.210666 25.6 25.6 0 0 1 50.692266 7.210666z" fill="#000000" p-id="55348"></path><path d="M526.510933 503.1424c52.3776 10.530133 92.394667-76.8 94.848-116.992 1.122133-18.4576-43.153067 6.033067-80.072533 0-43.473067-7.095467-80.861867-41.3824-82.146133-16.725333-2.376533 45.5808 14.084267 123.003733 67.370666 133.717333z" fill="#A24435" p-id="55349"></path><path d="M505.736533 398.5152c-3.579733-3.255467 1.403733-11.272533 5.1968-17.028267l30.446934 9.847467c-2.555733 7.901867-3.4048 14.9888-7.6672 16.226133-1.9072 0.554667-23.496533-4.9792-27.976534-9.045333zM547.485867 413.5424c-4.573867-1.578667-5.614933-14.4768-6.199467-20.846933l36.1088-3.3408c0.768 8.273067 3.264 18.624-0.1664 21.44-1.536 1.262933-24.021333 4.7232-29.742933 2.747733z" fill="#FFFFFF" p-id="55350"></path><path d="M564.9664 332.0192c-0.832 5.832533-10.9568 9.216-22.621867 7.556267-11.665067-1.659733-20.450133-7.7312-19.6224-13.563734 0.832-5.832533 10.961067-9.216 22.621867-7.556266 11.665067 1.655467 20.450133 7.7312 19.6224 13.563733z" fill="#FFB2B2" p-id="55351"></path><path d="M428.270933 209.109333c-8.4224 5.265067 23.773867-7.3472 52.804267 7.505067 8.759467 4.48-7.867733-35.592533-52.804267-7.509333zM685.026133 245.201067c6.621867 7.406933-20.782933-13.6832-52.804266-7.509334-9.659733 1.864533 17.476267-31.991467 52.804266 7.509334z" fill="#734838" p-id="55352"></path><path d="M648.183467 714.935467c-16.721067 51.677867 24.119467 71.057067 46.626133 74.286933 12.864 32.298667 39.662933 27.456 51.451733 20.996267 9.006933 7.752533 27.336533-3.229867 35.374934-9.6896 19.8272 1.0752 56.273067-11.626667 43.409066-71.061334-16.0768-74.286933-155.959467-79.1296-176.861866-14.532266zM166.050133 604.002133c-16.721067 51.677867 24.119467 71.057067 46.626134 74.286934 12.864 32.298667 39.662933 27.456 51.456 20.996266 9.002667 7.752533 27.332267-3.229867 35.370666-9.6896 19.831467 1.0752 56.277333-11.626667 43.409067-71.061333-16.0768-74.286933-155.959467-79.1296-176.861867-14.532267z" fill="#FFD7C9" p-id="55353"></path><path d="M695.466667 789.333333c-2.3424-17.553067-5.6192-55.7824 0-68.266666-6.4384 9.7536-15.453867 37.060267 0 68.266666zM213.333333 678.4c-2.3424-17.553067-5.6192-55.7824 0-68.266667-6.442667 9.7536-15.453867 37.060267 0 68.266667zM746.666667 810.666667c8.366933-19.502933 17.664-54.613333 14.6432-68.266667 6.276267 11.703467 0 48.763733-14.6432 68.266667zM264.533333 699.733333c8.366933-19.502933 17.664-54.613333 14.6432-68.266666 6.276267 11.703467 0 48.763733-14.6432 68.266666zM780.8 797.866667c8.366933-10.9696 17.664-30.72 14.6432-38.4 6.276267 6.583467 0 27.4304-14.6432 38.4zM298.666667 686.933333c8.366933-10.9696 17.664-30.72 14.6432-38.4 6.276267 6.583467 0 27.4304-14.6432 38.4z" fill="#F9AF97" p-id="55354"></path><path d="M578.133333 157.866667C497.92 110.08 351.287467 209.066667 281.6 268.8c32.712533-64 146.773333-189.013333 315.733333-168.533333 168.96 20.48 246.754133 165.691733 260.266667 238.933333-87.466667-162.133333-219.733333-189.866667-279.466667-181.333333z" fill="#734838" p-id="55355"></path><path d="M534.340267 448.3328c-26.018133-4.923733-38.7968 10.0352-45.8112 25.2672 4.113067 8.362667 19.093333 22.916267 37.184 27.456 20.693333 5.188267 35.3536-6.464 42.436266-11.3536 1.770667-15.547733-7.786667-36.4416-33.809066-41.3696z" fill="#F36650" p-id="55356"></path><path d="M319.313067 166.4a3.114667 3.114667 0 0 1-1.4208-0.354133l-7.752534-3.776a1.608533 1.608533 0 0 0-0.768-0.174934 2.423467 2.423467 0 0 0-0.768 0.1408l-7.714133 3.810134a2.935467 2.935467 0 0 1-1.4592 0.354133 3.3792 3.3792 0 0 1-2.4192-1.032533 2.658133 2.658133 0 0 1-0.6912-2.346667l1.4976-7.978667a1.527467 1.527467 0 0 0-0.4992-1.348266l-6.216533-5.589334a2.705067 2.705067 0 0 1-0.8064-2.986666 3.114667 3.114667 0 0 1 2.5344-1.9968l8.597333-1.173334a1.7152 1.7152 0 0 0 1.2672-0.8192l3.84-7.261866A3.140267 3.140267 0 0 1 309.333333 132.266667c1.1904 0 2.261333 0.605867 2.8032 1.6l3.84 7.261866c0.264533 0.465067 0.725333 0.746667 1.262934 0.8192l8.597333 1.173334a3.140267 3.140267 0 0 1 2.5344 1.962666c0.384 1.066667 0.0768 2.2016-0.768 2.986667l-6.178133 5.623467a1.4336 1.4336 0 0 0-0.4992 1.352533l1.454933 7.936c0.1536 0.853333-0.0768 1.706667-0.6912 2.346667a3.131733 3.131733 0 0 1-2.376533 1.070933zM919.466667 891.733333c1.186133 0 2.2656 0.605867 2.8032 1.604267l3.835733 7.2576a1.685333 1.685333 0 0 0 1.2672 0.8192l8.597333 1.173333a3.136 3.136 0 0 1 2.5344 1.9584 2.7648 2.7648 0 0 1-0.768 2.990934l-6.178133 5.623466a1.437867 1.437867 0 0 0-0.503467 1.352534l1.4592 7.936a2.6624 2.6624 0 0 1-0.6912 2.350933 3.136 3.136 0 0 1-3.8016 0.712533l-7.748266-3.776a1.6256 1.6256 0 0 0-0.772267-0.174933 2.513067 2.513067 0 0 0-0.763733 0.1408l-7.714134 3.810133a2.952533 2.952533 0 0 1-1.4592 0.354134 3.383467 3.383467 0 0 1-2.4192-1.032534 2.653867 2.653867 0 0 1-0.6912-2.346666l1.4976-7.9744a1.531733 1.531733 0 0 0-0.4992-1.352534l-6.216533-5.589333a2.7008 2.7008 0 0 1-0.8064-2.986667 3.114667 3.114667 0 0 1 2.530133-1.9968l8.6016-1.173333a1.7024 1.7024 0 0 0 1.262934-0.8192l3.84-7.2576a3.144533 3.144533 0 0 1 2.8032-1.604267z m-806.4-93.866666c3.3024 0 6.289067 1.813333 7.7824 4.804266l10.658133 21.781334c0.746667 1.390933 2.026667 2.244267 3.52 2.4576l23.8848 3.524266a8.866133 8.866133 0 0 1 7.031467 5.8752c1.066667 3.2 0.213333 6.6176-2.129067 8.964267l-17.1648 16.8704c-1.173333 1.066667-1.6 2.564267-1.390933 4.0576l4.053333 23.816533c0.426667 2.56-0.213333 5.12-1.92 7.044267-1.595733 2.026667-4.049067 3.204267-6.6048 3.204267-1.28 0-2.56-0.32-3.946667-1.066667l-21.538133-11.319467a4.202667 4.202667 0 0 0-2.133333-0.533333c-0.746667 0-1.595733 0.213333-2.129067 0.426667l-21.4272 11.426133c-1.28 0.746667-2.56 1.066667-4.053333 1.066667-2.56 0-5.013333-1.173333-6.72-3.0976-1.706667-1.92-2.3424-4.484267-1.92-7.044267l4.164266-23.9232c0.213333-1.493333-0.324267-2.990933-1.390933-4.0576l-17.271467-16.759467a8.554667 8.554667 0 0 1-2.235733-8.9728c1.066667-3.2 3.729067-5.444267 7.035733-5.9776l23.880534-3.524266c1.493333-0.213333 2.875733-1.173333 3.515733-2.4576l10.666667-21.781334A8.631467 8.631467 0 0 1 113.066667 797.866667zM951.466667 499.2c2.376533 0 4.526933 1.284267 5.602133 3.4048l7.675733 15.428267a3.370667 3.370667 0 0 0 2.5344 1.7408l17.194667 2.496a6.353067 6.353067 0 0 1 5.064533 4.16 6.101333 6.101333 0 0 1-1.536 6.353066l-12.356266 11.950934a3.157333 3.157333 0 0 0-0.9984 2.875733l2.9184 16.861867c0.3072 1.813333-0.157867 3.6352-1.3824 4.996266-1.152 1.4336-2.9184 2.2656-4.7616 2.2656-0.9216 0-1.8432-0.226133-2.8416-0.7552l-15.5008-8.021333a3.089067 3.089067 0 0 0-1.540267-0.375467 4.522667 4.522667 0 0 0-1.531733 0.302934l-15.428267 8.093866a5.602133 5.602133 0 0 1-2.9184 0.7552c-1.8432 0-3.6096-0.832-4.8384-2.193066a5.879467 5.879467 0 0 1-1.378133-4.992l2.990933-16.938667a3.374933 3.374933 0 0 0-0.994133-2.875733l-12.437334-11.874134a5.9904 5.9904 0 0 1-1.6128-6.357333c0.768-2.2656 2.688-3.8528 5.064534-4.232533l17.198933-2.496a3.4176 3.4176 0 0 0 2.530133-1.7408l7.675734-15.428267A6.229333 6.229333 0 0 1 951.466667 499.2zM108.8 290.133333c1.7152 0 3.268267 0.9088 4.0448 2.402134l5.546667 10.8928a2.432 2.432 0 0 0 1.826133 1.224533l12.416 1.762133c1.719467 0.2688 3.1104 1.390933 3.665067 2.939734a4.241067 4.241067 0 0 1-1.109334 4.48l-8.930133 8.439466a2.2016 2.2016 0 0 0-0.7168 2.030934l2.107733 11.904a4.096 4.096 0 0 1-1.002666 3.524266 4.4544 4.4544 0 0 1-3.434667 1.6c-0.6656 0-1.3312-0.162133-2.048-0.533333l-11.204267-5.6576a2.2528 2.2528 0 0 0-1.109333-0.2688 3.387733 3.387733 0 0 0-1.109333 0.213333l-11.136 5.713067a4.1216 4.1216 0 0 1-2.112 0.533333c-1.3312 0-2.602667-0.584533-3.490134-1.544533a4.096 4.096 0 0 1-1.002666-3.528533l2.1632-11.9552a2.346667 2.346667 0 0 0-0.721067-2.030934l-8.977067-8.384a4.16 4.16 0 0 1-1.1648-4.48c0.554667-1.604267 1.941333-2.730667 3.6608-2.9952l12.416-1.762133a2.474667 2.474667 0 0 0 1.8304-1.224533l5.546667-10.8928c0.772267-1.493333 2.325333-2.402133 4.0448-2.402134z m-38.3872-187.4944c22.1312-41.3568 71.978667-58.282667 114.295467-40.264533 3.818667 2.368 5.248 7.2192 3.114666 11.2128-1.169067 2.184533-3.131733 3.626667-5.333333 4.202667-0.064 0.021333 0.021333 0.068267 0.029867 0.1024-14.0672 3.746133-26.594133 13.000533-34.030934 26.897066-14.293333 26.7264-4.224 59.968 22.5024 74.269867a54.216533 54.216533 0 0 0 43.016534 3.5712c-0.0896 0.1664-0.0512 0.2432 0.0256 0.200533a8.3712 8.3712 0 0 1 7.0528 0.4224 8.354133 8.354133 0 0 1 3.579733 10.948267c-25.173333 38.506667-76.066133 52.091733-117.431467 29.960533-43.733333-23.402667-60.215467-77.789867-36.821333-121.518933zM921.6 98.133333c3.963733 0 7.543467 2.197333 9.335467 5.806934l12.795733 26.325333c0.896 1.672533 2.432 2.705067 4.219733 2.961067l28.6592 4.258133c3.968 0.648533 7.163733 3.357867 8.443734 7.099733 1.28 3.869867 0.256 7.995733-2.56 10.837334l-20.5952 20.381866c-1.408 1.288533-1.92 3.0976-1.664 4.906667l4.859733 28.765867c0.512 3.0976-0.251733 6.1952-2.299733 8.520533-1.92 2.449067-4.864 3.869867-7.931734 3.869867-1.536 0-3.072-0.388267-4.736-1.2928l-25.838933-13.674667c-0.64-0.384-1.536-0.644267-2.56-0.644267-0.896 0-1.924267 0.256-2.564267 0.512l-25.710933 13.806934a9.173333 9.173333 0 0 1-4.864 1.2928 10.837333 10.837333 0 0 1-8.055467-3.741867c-2.048-2.321067-2.816-5.418667-2.304-8.516267l4.987734-28.9024a5.832533 5.832533 0 0 0-1.664-4.9024l-20.727467-20.253866a10.3808 10.3808 0 0 1-2.683733-10.837334 10.589867 10.589867 0 0 1 8.443733-7.227733l28.6592-4.258133c1.787733-0.256 3.451733-1.416533 4.219733-2.965334l12.791467-26.321066A10.359467 10.359467 0 0 1 921.6 98.133333z" fill="#FFD666" p-id="55357"></path></svg>