<?xml version="1.0" standalone="no"?><!DOCTYPE svg PUBLIC "-//W3C//DTD SVG 1.1//EN" "http://www.w3.org/Graphics/SVG/1.1/DTD/svg11.dtd"><svg t="1774959706100" class="icon" viewBox="0 0 1024 1024" version="1.1" xmlns="http://www.w3.org/2000/svg" p-id="7856" xmlns:xlink="http://www.w3.org/1999/xlink" width="200" height="200"><path d="M389.312 259.264c39.296-32.608 39.424-137.216-42.944-121.12C248.192 157.28 304.128 329.984 389.312 259.264z" fill="#1296db" p-id="7857"></path><path d="M660.448 284.768c70.56 58.592 116.896-84.544 35.584-100.384C627.776 171.072 627.872 257.728 660.448 284.768z" fill="#1296db" p-id="7858"></path><path d="M403.648 708.768c-37.344-8.576-10.4 73.344-20.256 96.832 6.624 0.48 15.424 1.248 28.256 2.4 2.208 0.224 4.192-0.064 6.016-0.576C402.24 787.68 430.912 715.04 403.648 708.768zM632.192 708.768c-25.888 5.984-1.472 71.456-12 95.168 3.008 3.008 6.912 4.544 11.936 4.096 8.48-0.768 15.04-1.344 20.544-1.792C642.08 783.552 669.856 700.16 632.192 708.768zM840.512 403.776c-19.84-26.944-46.72-52.288-76.832-67.744-14.336-7.328-29.408-12.448-44.768-14.432-45.568-5.92-93.664 6.08-124.896 40-18.08 19.584-46.688 114.88-72.064 119.968-8.224 1.536-75.616-144.352-106.304-168.224-35.904-27.904-113.856-22.688-147.616 0-68.736 46.208-143.52 215.744-125.664 234.016 26.656 27.328 63.84-47.84 78.24-42.56 14.4 5.344 46.592 305.568 109.216 302.432 18.72-0.928 26.624-1.856 33.536-2.112-26.784-33.344-26.592-180.192-34.56-183.136-9.088-3.328-32.384 43.84-49.152 26.688-11.2-11.456 35.776-117.888 78.88-146.912 21.216-14.24 70.144-17.536 92.672 0 2.752 2.176 6.016 5.952 9.568 10.784 17.824 11.008 37.12 67.264 61.152 68.032 6.176 0.192 12.064-3.456 17.696-9.216 14.944-27.072 33.888-60.896 45.056-69.6 22.56-17.536 71.456-14.24 92.672 0 43.136 29.024 90.08 135.456 78.88 146.912-16.704 17.152-40.064-30.016-49.152-26.688-7.936 2.944-7.776 149.44-34.464 183.008 10.4-0.192 15.744 0.96 41.44 2.24 69.664 3.52 84.928-285.504 87.712-329.824 31.104 6.272 51.648 124.128 74.816 53.344C889.6 490.944 863.008 434.4 840.512 403.776zM434.688 467.808c-53.472 44.384-88.608-64.032-26.976-76.032C459.424 381.696 459.36 447.36 434.688 467.808zM601.12 467.808c-24.64-20.448-24.736-86.112 27.008-76.032C689.696 403.776 654.624 512.192 601.12 467.808z" fill="#1296db" p-id="7859"></path></svg>