<?xml version="1.0" standalone="no"?><!DOCTYPE svg PUBLIC "-//W3C//DTD SVG 1.1//EN" "http://www.w3.org/Graphics/SVG/1.1/DTD/svg11.dtd"><svg t="1775227319540" class="icon" viewBox="0 0 1024 1024" version="1.1" xmlns="http://www.w3.org/2000/svg" p-id="8945" xmlns:xlink="http://www.w3.org/1999/xlink" width="200" height="200"><path d="M514.816 142.208c-227.456 0-411.904 184.448-411.904 411.904 0 88.32 27.904 170.24 75.264 237.312 9.216-13.184 21.76-23.168 37.12-27.648 41.6-12.416 87.808 18.56 105.6 69.632 6.528-4.096 13.824-6.912 21.632-7.936 39.168-5.12 76.672 34.944 83.712 89.344 1.92 14.464 1.408 28.416-1.024 41.344 28.8 6.4 58.88 9.856 89.6 9.856 88.32 0 170.112-27.776 237.184-75.136-4.48-50.688 19.712-94.72 55.936-101.504 1.024-8.832 4.096-16.896 8.832-23.936-1.664-7.04-2.688-14.336-2.688-21.888 0-51.584 41.856-93.44 93.44-93.44 2.56 0 5.12 0.128 7.68 0.384 7.424-30.976 11.52-63.232 11.52-96.512 0-227.328-184.448-411.776-411.904-411.776z" fill="#F4CB55" p-id="8946"></path><path d="M816.768 765.44c-5.888 8.704-9.216 19.072-9.216 30.336 0 13.184 4.736 25.344 12.672 34.816 6.784-7.424 13.184-15.232 19.328-23.168-11.008-11.52-18.944-25.984-22.784-41.984z" fill="#14AAAA" p-id="8947"></path><path d="M726.528 200.832l-482.176 42.624s-49.92 46.464-69.632 78.336c48.384-6.528 559.744-115.456 559.744-115.456l-7.936-5.504zM752 216.32L110.72 473.856s-20.608 107.904 2.304 175.616l651.52-422.784L752 216.32z m44.8 37.632l-37.248 158.72-50.944-50.944z m96.768 461.824c-1.024 0-96.768-461.696-96.768-461.696l127.232 346.624c0-0.128-5.888 58.752-30.464 115.072z" fill="#FEE092" p-id="8948"></path><path d="M814.08 743.68c0 7.552 1.024 14.848 2.688 21.888 9.728-14.464 26.24-23.936 44.928-23.936 6.4 0 12.416 1.152 18.176 3.2 15.36-29.44 27.392-61.056 35.328-94.208a77.136 77.136 0 0 0-7.68-0.384c-51.584 0-93.44 41.728-93.44 93.44z" fill="#0E6C95" p-id="8949"></path><path d="M816.768 765.44c3.84 16 11.776 30.336 22.656 41.984 15.36-19.584 28.928-40.576 40.448-62.72a53.193 53.193 0 0 0-18.176-3.2c-18.688 0-35.2 9.6-44.928 23.936z" fill="#14AAAA" p-id="8950"></path><path d="M127.872 697.984C149.12 672 181.504 655.36 217.856 655.36h1.408c0-64.128-51.968-116.224-116.224-116.224h-1.024c-0.128 4.736-0.384 9.344-0.384 14.08 0 50.944 9.344 99.712 26.24 144.768z" fill="#0E6C95" p-id="8951"></path><path d="M219.264 655.36h-1.408c-36.224 0-68.608 16.64-89.984 42.624 7.936 20.992 17.536 41.216 28.544 60.544 26.88 46.72 62.72 87.68 105.216 120.576 42.368-17.28 72.32-58.88 72.32-107.52 0.128-63.872-51.2-115.456-114.688-116.224z" fill="#14AAAA" p-id="8952"></path><path d="M727.808 364.16H296.832c-52.992 0-96.256 43.264-96.256 96.256V508.8h623.488v-48.384c0-52.992-43.392-96.256-96.256-96.256z" fill="#FD6502" p-id="8953"></path><path d="M515.2 966.016c122.88 0 233.088-53.632 308.864-138.752v-305.92H200.576V820.48C276.352 909.44 389.12 966.016 515.2 966.016z" fill="#FFFFFF" p-id="8954"></path><path d="M200.576 508.8h623.488v12.416H200.576z" fill="#A12200" p-id="8955"></path><path d="M235.52 592.768h553.6v12.928h-553.6zM330.88 715.392h-42.24a3.169 3.169 0 0 1-3.2-3.2v-42.24c0-1.792 1.408-3.2 3.2-3.2h42.24c1.792 0 3.2 1.408 3.2 3.2v42.24c0 1.792-1.536 3.2-3.2 3.2z m405.12 0h-42.24a3.169 3.169 0 0 1-3.2-3.2v-42.24c0-1.792 1.408-3.2 3.2-3.2H736c1.792 0 3.2 1.408 3.2 3.2v42.24c0 1.792-1.408 3.2-3.2 3.2z m-135.04 0h-42.24a3.169 3.169 0 0 1-3.2-3.2v-42.24c0-1.792 1.408-3.2 3.2-3.2h42.24c1.792 0 3.2 1.408 3.2 3.2v42.24c0 1.792-1.408 3.2-3.2 3.2z" fill="#DDDDDD" p-id="8956"></path><path d="M487.936 737.408h-86.4a3.169 3.169 0 0 1-3.2-3.2v-86.4c0-1.792 1.408-3.2 3.2-3.2h86.4c1.792 0 3.2 1.408 3.2 3.2v86.4c0 1.792-1.408 3.2-3.2 3.2z" fill="#FD6304" p-id="8957"></path><path d="M330.88 825.088h-42.24a3.169 3.169 0 0 1-3.2-3.2v-42.24c0-1.792 1.408-3.2 3.2-3.2h42.24c1.792 0 3.2 1.408 3.2 3.2v42.24c0 1.792-1.536 3.2-3.2 3.2z m405.12 0h-42.24a3.169 3.169 0 0 1-3.2-3.2v-42.24c0-1.792 1.408-3.2 3.2-3.2H736c1.792 0 3.2 1.408 3.2 3.2v42.24c0 1.792-1.408 3.2-3.2 3.2z m-135.04 0h-42.24a3.169 3.169 0 0 1-3.2-3.2v-42.24c0-1.792 1.408-3.2 3.2-3.2h42.24c1.792 0 3.2 1.408 3.2 3.2v42.24c0 1.792-1.408 3.2-3.2 3.2z m-135.04 0h-42.24a3.169 3.169 0 0 1-3.2-3.2v-42.24c0-1.792 1.408-3.2 3.2-3.2h42.24c1.792 0 3.2 1.408 3.2 3.2v42.24c0 1.792-1.408 3.2-3.2 3.2z" fill="#DDDDDD" p-id="8958"></path><path d="M283.392 444.8a29.056 29.056 0 1 0 58.112 0 29.056 29.056 0 1 0-58.112 0z" fill="#AF4300" p-id="8959"></path><path d="M312.448 465.536c-14.592 0-26.752-10.88-28.8-24.96a22.181 22.181 0 0 0-0.384 4.096c0 16.128 13.056 29.056 29.056 29.056 16.128 0 29.056-13.056 29.056-29.056 0-1.408-0.128-2.816-0.384-4.096-1.792 14.208-13.952 24.96-28.544 24.96z" fill="#933806" opacity=".8" p-id="8960"></path><path d="M688.128 444.8a29.056 29.056 0 1 0 58.112 0 29.056 29.056 0 1 0-58.112 0z" fill="#AF4300" p-id="8961"></path><path d="M717.184 465.536c-14.592 0-26.752-10.88-28.8-24.96a22.181 22.181 0 0 0-0.384 4.096c0 16.128 13.056 29.056 29.056 29.056 16.128 0 29.056-13.056 29.056-29.056 0-1.408-0.128-2.816-0.384-4.096-1.792 14.208-13.824 24.96-28.544 24.96z" fill="#933806" opacity=".8" p-id="8962"></path><path d="M200.576 697.984s101.76 73.728 181.12 76.544c-2.432 12.8-48.128 149.376-48.128 149.376l-132.992-140.8v-85.12z" fill="#DEF0F6" p-id="8963"></path><path d="M426.24 914.816c-7.04-54.4-44.544-94.464-83.712-89.344-7.808 1.024-14.976 3.712-21.632 7.936-17.792-51.072-64-81.92-105.6-69.632-15.36 4.608-27.904 14.464-37.12 27.648 28.928 40.96 65.024 76.416 106.624 104.448 11.392 7.68 23.168 14.848 35.328 21.376a406.713 406.713 0 0 0 104.96 38.912c2.56-12.928 3.072-27.008 1.152-41.344z m429.312-129.408c-8.32-5.76-18.432-9.088-29.312-9.088-28.672 0-51.968 23.296-51.968 51.968 0 13.568 4.992 25.6 13.568 34.944 28.416-24.704 48.512-49.024 67.712-77.824zM328.192 454.784h-31.616c-2.944 0-5.504-2.432-5.504-5.504V327.296c0-2.944 2.432-5.504 5.504-5.504h31.616c2.944 0 5.504 2.432 5.504 5.504V449.28a5.463 5.463 0 0 1-5.504 5.504z" fill="#FFFFFF" p-id="8964"></path><path d="M312.32 433.92c-11.648 0-21.248-9.6-21.248-21.248v20.736c0 11.648 9.6 21.248 21.248 21.248s21.248-9.6 21.248-21.248v-20.736a21.196 21.196 0 0 1-21.248 21.248z" fill="#BEA597" p-id="8965"></path><path d="M728.064 454.784h-31.616c-2.944 0-5.504-2.432-5.504-5.504V327.296c0-2.944 2.432-5.504 5.504-5.504h31.616c2.944 0 5.504 2.432 5.504 5.504V449.28a5.463 5.463 0 0 1-5.504 5.504z" fill="#FFFFFF" p-id="8966"></path><path d="M712.192 433.92c-11.648 0-21.248-9.6-21.248-21.248v20.736c0 11.648 9.6 21.248 21.248 21.248s21.248-9.6 21.248-21.248v-20.736c0 11.776-9.6 21.248-21.248 21.248z" fill="#BEA597" p-id="8967"></path><path d="M454.656 684.032l139.904-84.864 288-230.528s-12.288-23.68-19.84-34.816c-9.6 9.6-284.032 237.824-284.032 237.824L454.656 684.032z" fill="#666666" opacity=".39" p-id="8968"></path><path d="M759.552 151.04L473.216 576.256l15.104 10.112 285.056-425.984z" fill="#82CDF4" p-id="8969"></path><path d="M773.376 160.384L488.32 586.368l39.552 26.752 285.184-426.112-16.256-10.88z" fill="#2DA6EA" p-id="8970"></path><path d="M547.712 626.432l286.336-425.216-20.992-14.208L527.872 613.12z" fill="#1377C2" p-id="8971"></path><path d="M773.376 160.384l2.816-4.224-13.696-9.216-2.944 4.096h0.128z m39.68 26.624l20.992 14.208 2.816-4.224-20.992-14.208z" fill="#ED1C24" p-id="8972"></path><path d="M799.616 171.904l-23.424-15.744-2.816 4.224 23.424 15.744 16.256 10.88 2.816-4.224z m-2.816 4.224l-23.424-15.744zM773.376 160.384l-13.696-9.344h-0.128l13.824 9.344z" fill="#ED1C24" p-id="8973"></path><path d="M815.872 182.784l8.96-13.44-39.552-26.624-9.088 13.44 23.424 15.744z" fill="#C3D6E0" p-id="8974"></path><path d="M771.584 133.376l-9.088 13.568 13.696 9.216 9.088-13.44z" fill="#B6C7CE" p-id="8975"></path><path d="M815.872 182.784l20.992 14.208 9.088-13.44-21.12-14.208z" fill="#79A9BF" p-id="8976"></path><path d="M815.872 182.784l-16.256-10.88z m0 0l20.992 14.208z" fill="#C3D6E0" p-id="8977"></path><path d="M840.32 60.416c-8.704-3.712-19.072-0.768-24.576 7.424l-44.16 65.536 13.696 9.216 55.04-82.176z" fill="#FE7841" p-id="8978"></path><path d="M884.736 89.856l-4.608-3.072-55.296 82.56 21.12 14.208 44.16-65.536c6.272-9.344 3.84-21.888-5.376-28.16z" fill="#CC1C07" p-id="8979"></path><path d="M824.832 169.344l55.296-82.56-36.352-24.448c-1.152-0.768-2.304-1.408-3.584-1.92l-55.04 82.176 39.68 26.752z" fill="#FF6A00" p-id="8980"></path><path d="M459.264 657.664l-4.48 25.984 18.688-15.488z" fill="#2DA6EA" p-id="8981"></path><path d="M454.784 683.648l-0.128 0.384 22.016-13.568-3.2-2.304z" fill="#1B96CC" p-id="8982"></path><path d="M550.272 604.416l-76.8 63.744 3.2 2.304 71.04-44.032c1.792-9.216 2.56-16.384 2.56-22.016z" fill="#EA9524" p-id="8983"></path><path d="M473.216 576.256l-13.952 81.408 2.56 1.92 25.472-91.776c-7.552 3.328-13.952 8.32-14.08 8.448z" fill="#F9B75F" p-id="8984"></path><path d="M550.272 604.416c-0.384-32-28.544-11.52-39.04-2.688 6.272-40.192-10.624-39.808-23.808-34.048l-25.472 91.776 11.648 8.576 76.672-63.616z" fill="#FBB03B" p-id="8985"></path></svg>